<?xml version="1.0" encoding="iso-8859-1"?>
<!-- Uploaded to: SVG Repo, www.svgrepo.com, Generator: SVG Repo Mixer Tools -->
<svg height="800px" width="800px" version="1.1" id="Layer_1" xmlns="http://www.w3.org/2000/svg" xmlns:xlink="http://www.w3.org/1999/xlink" 
	 viewBox="0 0 512 512" xml:space="preserve">
<g>
	<path style="fill:#74B73E;" d="M506.606,148.631l-76.712-84.374c-3.928-4.326-9.498-6.797-15.342-6.797H18.026
		C8.068,57.459,0,65.528,0,75.485V339.58c0,9.949,8.068,18.017,18.026,18.017h26.112c0-29.246,23.711-52.966,52.966-52.966
		s52.966,23.72,52.966,52.966h211.862h105.931h26.112c9.957,0,18.026-8.068,18.026-18.017V162.587
		C512,157.423,510.076,152.453,506.606,148.631"/>
	<g>
		<path style="fill:#E0E0E0;" d="M394.759,198.704h117.239v-36.122c0-5.155-1.924-10.134-5.394-13.948l-50.776-55.861h-61.069
			c-3.505,0-6.347,2.842-6.347,6.347v93.237C388.412,195.862,391.255,198.704,394.759,198.704"/>
		<path style="fill:#E0E0E0;" d="M0.001,92.773v105.931h68.961c5.791,0,10.487-4.696,10.487-10.487V103.26
			c0-5.791-4.696-10.487-10.487-10.487H0.001z"/>
		<path style="fill:#E0E0E0;" d="M256.001,105.186v81.108c0,6.85,5.561,12.412,12.412,12.412h63.453
			c6.85,0,12.412-5.561,12.412-12.412v-81.108c0-6.859-5.561-12.412-12.412-12.412h-63.453
			C261.562,92.774,256.001,98.327,256.001,105.186"/>
		<path style="fill:#E0E0E0;" d="M123.587,105.186v81.108c0,6.85,5.561,12.412,12.412,12.412h63.453
			c6.85,0,12.412-5.561,12.412-12.412v-81.108c0-6.859-5.561-12.412-12.412-12.412h-63.453
			C129.148,92.774,123.587,98.327,123.587,105.186"/>
	</g>
	<path style="fill:#494949;" d="M150.07,357.601c0,29.255-23.711,52.966-52.966,52.966s-52.966-23.711-52.966-52.966
		s23.711-52.966,52.966-52.966S150.07,328.346,150.07,357.601"/>
	<path style="fill:#A2A2A2;" d="M114.76,357.601c0,9.754-7.901,17.655-17.655,17.655s-17.655-7.901-17.655-17.655
		s7.901-17.655,17.655-17.655S114.76,347.846,114.76,357.601"/>
	<g>
		<path style="fill:#599922;" d="M282.484,225.187H0.001v17.655h282.483c4.873,0,8.828-3.946,8.828-8.828
			S287.356,225.187,282.484,225.187"/>
		<path style="fill:#599922;" d="M317.794,260.497H0.001v17.655h317.793c4.873,0,8.828-3.946,8.828-8.828
			S322.667,260.497,317.794,260.497"/>
	</g>
	<g>
		<path style="fill:#C6E3F8;" d="M397.242,339.781h-17.655c-32.071-12.826-52.966-42.911-52.966-76.27V233.85h123.586v29.661
			C450.208,296.87,429.313,326.955,397.242,339.781"/>
		<path style="fill:#C6E3F8;" d="M379.587,339.781h17.655c32.071,12.826,52.966,42.911,52.966,76.27v29.661H326.622v-29.661
			C326.622,382.692,347.516,352.608,379.587,339.781"/>
	</g>
	<g>
		<path style="fill:#434C6D;" d="M300.139,242.678h8.828h17.655h150.069c4.882,0,8.828-3.955,8.828-8.828s-3.946-8.828-8.828-8.828
			H326.622h-17.655h-8.828c-4.882,0-8.828,3.955-8.828,8.828S295.257,242.678,300.139,242.678"/>
		<path style="fill:#434C6D;" d="M476.682,436.868H317.785c-0.026,0-0.053,0.018-0.088,0.018h-17.558
			c-4.882,0-8.828,3.955-8.828,8.828c0,4.873,3.946,8.828,8.828,8.828h26.483c0.026,0,0.053-0.018,0.088-0.018h149.972
			c4.882,0,8.828-3.955,8.828-8.828C485.509,440.823,481.563,436.868,476.682,436.868"/>
	</g>
</g>
</svg>