<!DOCTYPE svg PUBLIC "-//W3C//DTD SVG 1.1//EN" "http://www.w3.org/Graphics/SVG/1.1/DTD/svg11.dtd">
<!-- Uploaded to: SVG Repo, www.svgrepo.com, Transformed by: SVG Repo Mixer Tools -->
<svg height="800px" width="800px" version="1.1" id="Layer_1" xmlns="http://www.w3.org/2000/svg" xmlns:xlink="http://www.w3.org/1999/xlink" viewBox="0 0 512.853 512.853" xml:space="preserve" fill="#000000">
<g id="SVGRepo_bgCarrier" stroke-width="0"/>
<g id="SVGRepo_tracerCarrier" stroke-linecap="round" stroke-linejoin="round"/>
<g id="SVGRepo_iconCarrier"> <g transform="translate(1 1)"> <path style="fill:#FFE100;" d="M472.6,160.707l-66.56-81.92c-3.413-4.267-8.533-6.827-13.653-6.827H48.493 c-8.533,0.853-15.36,8.533-15.36,17.92v256c0,9.387,6.827,17.067,15.36,17.067H60.44c0-28.16,20.48-51.2,46.08-51.2 s46.08,23.04,46.08,51.2h204.8c0-28.16,20.48-51.2,46.08-51.2s46.08,23.04,46.08,51.2h11.947c8.533,0,15.36-7.68,15.36-17.067 V175.213C476.867,169.24,475.16,164.973,472.6,160.707"/> <path style="fill:#63D3FD;" d="M7.533,106.947v102.4h66.56c5.973,0,10.24-4.267,10.24-10.24v-81.92 c0-5.973-4.267-10.24-10.24-10.24H7.533z"/> <path style="fill:#FECC00;" d="M127,362.947c0,28.16-17.067,51.2-38.4,51.2s-38.4-23.04-38.4-51.2c0-28.16,17.067-51.2,38.4-51.2 S127,334.787,127,362.947"/> <path style="fill:#FFA800;" d="M101.4,311.747c-2.56,0-5.12,0-7.68,0.853c18.773,3.413,33.28,24.747,33.28,50.347 c0,25.6-14.507,46.933-33.28,50.347c2.56,0,5.12,0.853,7.68,0.853c28.16,0,51.2-23.04,51.2-51.2 C152.6,334.787,129.56,311.747,101.4,311.747"/> <path style="fill:#FFFFFF;" d="M33.133,345.88v-256c0-9.387,6.827-17.067,15.36-17.067H24.6c-9.387,0-17.067,7.68-17.067,17.067 v256c0,9.387,7.68,17.067,17.067,17.067h23.893C39.96,362.947,33.133,355.267,33.133,345.88"/> <path style="fill:#FFA800;" d="M497.347,160.707l-74.24-81.92c-3.413-3.413-9.387-5.973-14.507-5.973h-16.213 c5.12,0,10.24,2.56,13.653,6.827l66.56,81.92c3.413,3.413,4.267,8.533,4.267,13.653V345.88c0,9.387-6.827,17.067-15.36,17.067 H485.4c9.387,0,17.067-7.68,17.067-17.067V175.213C502.467,169.24,500.76,164.973,497.347,160.707"/> <path style="fill:#63D3FD;" d="M388.973,209.347h87.893V174.36c0-5.12-1.707-9.387-5.12-13.653l-49.493-53.76h-33.28 c-3.413,0-5.973,2.56-5.973,5.973v90.453C383,206.787,385.56,209.347,388.973,209.347"/> <path style="fill:#3DB9F9;" d="M497.347,160.707l-49.493-53.76h-25.6l49.493,53.76c3.413,3.413,5.12,8.533,5.12,13.653v34.987h25.6 V174.36C502.467,169.24,500.76,164.973,497.347,160.707"/> <g> <path style="fill:#63D3FD;" d="M255,118.893V197.4c0,6.827,5.12,11.947,11.947,11.947h61.44c6.827,0,11.947-5.12,11.947-11.947 v-78.507c0-6.827-5.12-11.947-11.947-11.947h-61.44C260.12,106.947,255,112.067,255,118.893"/> <path style="fill:#63D3FD;" d="M127,118.893V197.4c0,6.827,5.12,11.947,11.947,11.947h61.44c6.827,0,11.947-5.12,11.947-11.947 v-78.507c0-6.827-5.12-11.947-11.947-11.947h-61.44C132.12,106.947,127,112.067,127,118.893"/> </g> <path style="fill:#FECC00;" d="M466.627,438.04H289.133c-8.533,0-12.8-8.533-9.387-16.213l86.187-161.28 c-4.267,7.68,12.8-0.853,8.533-8.533L475.16,421.827C479.427,428.653,474.307,438.04,466.627,438.04"/> <path style="fill:#FFA800;" d="M500.76,423.533L400.067,250.307c-4.267-6.827-14.507-6.827-17.92,0l-4.267,7.68l98.133,165.547 c4.267,6.827-0.853,16.213-9.387,16.213h25.6C499.907,439.747,505.027,431.213,500.76,423.533"/> <path d="M492.227,446.573h-202.24c-6.827,0-12.8-3.413-16.213-9.387c-3.413-5.973-3.413-12.8,0-18.773l100.693-174.08 c3.413-5.973,9.387-9.387,16.213-9.387l0,0c6.827,0,12.8,3.413,16.213,9.387L507.587,417.56c3.413,5.973,3.413,12.8,0,18.773 C505.027,443.16,499.053,446.573,492.227,446.573z M390.68,252.013c-0.853,0-0.853,0-1.707,0.853L288.28,426.093 c-0.853,0.853,0,1.707,0,1.707c0,0.853,0.853,0.853,1.707,0.853h202.24c0.853,0,1.707-0.853,1.707-0.853s0.853-0.853,0-1.707 L392.387,252.867C392.387,252.013,391.533,252.013,390.68,252.013z"/> <path d="M391.533,378.307c-5.12,0-8.533-3.413-8.533-8.533v-68.267c0-5.12,3.413-8.533,8.533-8.533s8.533,3.413,8.533,8.533v68.267 C400.067,374.04,396.653,378.307,391.533,378.307z"/> <path d="M314.733,286.147H7.533c-5.12,0-8.533-3.413-8.533-8.533c0-5.12,3.413-8.533,8.533-8.533h307.2 c5.12,0,8.533,3.413,8.533,8.533C323.267,282.733,319.853,286.147,314.733,286.147z"/> <path d="M280.6,252.013H7.533C2.413,252.013-1,248.6-1,243.48s3.413-8.533,8.533-8.533H280.6c5.12,0,8.533,3.413,8.533,8.533 S285.72,252.013,280.6,252.013z"/> <path d="M511,217.88H388.973c-7.68,0-14.507-6.827-14.507-14.507V112.92c0-7.68,6.827-14.507,14.507-14.507h63.147l51.2,57.173 c5.12,5.12,7.68,11.947,7.68,19.627C511,175.213,511,217.88,511,217.88z M391.533,200.813h102.4V174.36 c0-2.56-0.853-5.973-3.413-7.68l-46.933-51.2h-52.053V200.813z"/> <path d="M74.093,217.88H-1V98.413h75.093c10.24,0,18.773,8.533,18.773,18.773v81.92C92.867,209.347,84.333,217.88,74.093,217.88z M16.067,200.813h58.027c0.853,0,1.707-0.853,1.707-1.707v-81.92c0-0.853-0.853-1.707-1.707-1.707H16.067V200.813z"/> <path d="M328.387,217.88h-61.44c-11.093,0-20.48-9.387-20.48-20.48v-78.507c0-11.093,9.387-20.48,20.48-20.48h61.44 c11.093,0,20.48,9.387,20.48,20.48V197.4C348.867,208.493,339.48,217.88,328.387,217.88z M266.947,115.48 c-1.707,0-3.413,1.707-3.413,3.413V197.4c0,1.707,1.707,3.413,3.413,3.413h61.44c1.707,0,3.413-1.707,3.413-3.413v-78.507 c0-1.707-1.707-3.413-3.413-3.413H266.947z"/> <path d="M200.387,217.88h-61.44c-11.093,0-20.48-9.387-20.48-20.48v-78.507c0-11.093,9.387-20.48,20.48-20.48h61.44 c11.093,0,20.48,9.387,20.48,20.48V197.4C220.867,208.493,211.48,217.88,200.387,217.88z M138.947,115.48 c-1.707,0-3.413,1.707-3.413,3.413V197.4c0,1.707,1.707,3.413,3.413,3.413h61.44c1.707,0,3.413-1.707,3.413-3.413v-78.507 c0-1.707-1.707-3.413-3.413-3.413H138.947z"/> <path d="M502.467,277.613h-51.2c-5.12,0-8.533-3.413-8.533-8.533c0-5.12,3.413-8.533,8.533-8.533h51.2 c5.12,0,8.533,3.413,8.533,8.533C511,274.2,507.587,277.613,502.467,277.613z"/> <path d="M101.4,422.68c-33.28,0-59.733-26.453-59.733-59.733s26.453-59.733,59.733-59.733s59.733,26.453,59.733,59.733 S134.68,422.68,101.4,422.68z M101.4,320.28c-23.893,0-42.667,18.773-42.667,42.667c0,23.893,18.773,42.667,42.667,42.667 s42.667-18.773,42.667-42.667C144.067,339.053,125.293,320.28,101.4,320.28z"/> <path d="M118.467,362.947c0,9.387-7.68,17.067-17.067,17.067s-17.067-7.68-17.067-17.067c0-9.387,7.68-17.067,17.067-17.067 S118.467,353.56,118.467,362.947"/> <path d="M485.4,371.48h-23.04l-12.8-22.187c-1.707-5.973-5.12-11.093-8.533-15.36l-0.853-1.707l-46.933-80.213 c-0.853,0-1.707,0-2.56,0l0,0c-0.853,0-0.853,0-1.707,0.853l-69.12,118.613H144.067v-8.533c0-23.893-18.773-42.667-42.667-42.667 s-42.667,18.773-42.667,42.667v8.533H24.6c-14.507,0-25.6-11.947-25.6-25.6v-256c0-14.507,11.947-25.6,25.6-25.6h384 c7.68,0,15.36,3.413,21.333,9.387l74.24,81.92c5.12,5.12,7.68,11.947,7.68,19.627V345.88C511,359.533,499.053,371.48,485.4,371.48z M471.747,354.413H485.4c5.12,0,8.533-4.267,8.533-8.533V174.36c0-2.56-0.853-5.973-3.413-7.68l-73.387-81.92 c-2.56-1.707-5.973-3.413-8.533-3.413h-384c-4.267,0-8.533,4.267-8.533,8.533v256c0,5.12,4.267,8.533,8.533,8.533h17.067 c4.267-29.013,29.013-51.2,58.88-51.2s54.613,22.187,58.88,51.2H308.76l65.707-110.08c3.413-5.973,9.387-9.387,16.213-9.387l0,0 c6.827,0,12.8,3.413,16.213,9.387l46.08,79.36c5.12,5.973,8.533,12.8,11.093,19.627L471.747,354.413z"/> </g> <circle cx="392.533" cy="406.613" r="8.533"/> </g>
</svg>